<?xml version="1.0" encoding="UTF-8"?><svg id="Layer_2" xmlns="http://www.w3.org/2000/svg" viewBox="0 0 457.3 56.94"><defs><style>.cls-1{fill:#fff;}</style></defs><g id="Layer_1-2"><g><g><path class="cls-1" d="M71.03,20.94h4.14c2.66,0,4.61,.81,4.61,3.19,0,1.22-.66,2.4-1.79,2.8v.08c1.43,.32,2.48,1.32,2.48,3.07,0,2.59-2.12,3.8-4.97,3.8h-4.47v-12.93Zm3.93,5.34c1.8,0,2.57-.7,2.57-1.83,0-1.25-.85-1.72-2.52-1.72h-1.68v3.55h1.64Zm.3,5.81c1.9,0,2.96-.68,2.96-2.14,0-1.36-1.03-1.95-2.96-1.95h-1.94v4.09h1.94Z"/><path class="cls-1" d="M82.74,21.17c0-.77,.6-1.29,1.41-1.29s1.41,.52,1.41,1.29-.6,1.29-1.41,1.29-1.41-.54-1.41-1.29Zm.26,2.99h2.28v9.71h-2.28v-9.71Z"/><path class="cls-1" d="M87.9,29.02c0-3.23,2.2-5.1,4.62-5.1s4.62,1.87,4.62,5.1-2.2,5.09-4.62,5.09-4.62-1.87-4.62-5.09Zm6.9,0c0-1.95-.85-3.24-2.28-3.24s-2.28,1.3-2.28,3.24,.85,3.23,2.28,3.23,2.28-1.28,2.28-3.23Z"/><path class="cls-1" d="M99.16,29.02c0-3.16,1.99-5.1,4.11-5.1,1.1,0,1.79,.41,2.55,1.07l-.09-1.57v-3.52h2.28v13.97h-1.87l-.17-1.05h-.06c-.72,.72-1.72,1.29-2.76,1.29-2.42,0-3.99-1.88-3.99-5.09Zm6.57,2.11v-4.52c-.67-.59-1.32-.81-1.98-.81-1.23,0-2.25,1.17-2.25,3.2s.81,3.23,2.21,3.23c.75,0,1.38-.33,2.03-1.09Z"/><path class="cls-1" d="M111,21.17c0-.77,.6-1.29,1.41-1.29s1.41,.52,1.41,1.29-.6,1.29-1.41,1.29-1.41-.54-1.41-1.29Zm.26,2.99h2.28v9.71h-2.28v-9.71Z"/><path class="cls-1" d="M115.59,24.16h2.31l1.54,5.04c.27,.96,.55,1.95,.82,2.93h.08c.27-.97,.55-1.97,.82-2.93l1.54-5.04h2.2l-3.3,9.71h-2.63l-3.39-9.71Z"/><path class="cls-1" d="M126.19,29.02c0-3.16,2.19-5.1,4.48-5.1,2.63,0,4.01,1.9,4.01,4.61,0,.44-.05,.87-.1,1.11h-6.17c.19,1.72,1.3,2.71,2.86,2.71,.83,0,1.54-.26,2.25-.7l.78,1.42c-.93,.62-2.1,1.05-3.33,1.05-2.68,0-4.79-1.88-4.79-5.09Zm6.52-.93c0-1.5-.67-2.4-1.99-2.4-1.13,0-2.13,.85-2.33,2.4h4.32Z"/><path class="cls-1" d="M137.22,24.16h1.87l.17,1.73h.06c.69-1.27,1.72-1.97,2.76-1.97,.49,0,.81,.06,1.1,.2l-.4,1.98c-.34-.09-.59-.16-1-.16-.78,0-1.71,.53-2.29,2.01v5.92h-2.28v-9.71Z"/><path class="cls-1" d="M143.87,32.76l1.06-1.45c.86,.67,1.7,1.08,2.68,1.08,1.06,0,1.56-.5,1.56-1.16,0-.81-1.05-1.18-2.09-1.57-1.27-.48-2.73-1.21-2.73-2.83s1.36-2.9,3.54-2.9c1.35,0,2.44,.55,3.23,1.16l-1.04,1.4c-.68-.5-1.36-.85-2.13-.85-.98,0-1.44,.47-1.44,1.08,0,.77,.98,1.06,2.03,1.45,1.31,.49,2.78,1.12,2.78,2.93,0,1.67-1.32,3.01-3.77,3.01-1.33,0-2.73-.57-3.68-1.35Z"/><path class="cls-1" d="M153.45,21.17c0-.77,.6-1.29,1.41-1.29s1.41,.52,1.41,1.29-.6,1.29-1.41,1.29-1.41-.54-1.41-1.29Zm.26,2.99h2.28v9.71h-2.28v-9.71Z"/><path class="cls-1" d="M159.59,30.6v-4.63h-1.38v-1.71l1.5-.1,.27-2.65h1.89v2.65h2.48v1.81h-2.48v4.62c0,1.14,.44,1.7,1.38,1.7,.33,0,.73-.11,1.01-.22l.39,1.68c-.53,.17-1.21,.36-1.99,.36-2.24,0-3.07-1.42-3.07-3.51Z"/><path class="cls-1" d="M166.12,37.66l.42-1.76c.19,.06,.47,.13,.7,.13,1.02,0,1.61-.7,1.94-1.67l.18-.61-3.82-9.6h2.31l1.68,4.76c.29,.86,.57,1.82,.85,2.74h.08c.25-.9,.49-1.86,.74-2.74l1.45-4.76h2.2l-3.51,10.16c-.81,2.19-1.83,3.54-3.95,3.54-.53,0-.91-.08-1.27-.2Z"/><path class="cls-1" d="M181.41,20.94h2.29v12.93h-2.29v-12.93Z"/><path class="cls-1" d="M187.14,24.16h1.87l.17,1.31h.06c.87-.85,1.86-1.55,3.19-1.55,2.08,0,2.99,1.41,2.99,3.86v6.09h-2.28v-5.8c0-1.6-.46-2.2-1.51-2.2-.85,0-1.42,.42-2.21,1.21v6.79h-2.28v-9.71Z"/><path class="cls-1" d="M197.66,24.26l1.42-.1h4.06v1.81h-5.48v-1.71Zm1.3-1.11c0-2.01,.93-3.49,3.22-3.49,.7,0,1.34,.17,1.78,.34l-.43,1.7c-.35-.15-.72-.23-1.05-.23-.81,0-1.23,.51-1.23,1.64v10.76h-2.28v-10.72Z"/><path class="cls-1" d="M204.36,29.02c0-3.23,2.2-5.1,4.62-5.1s4.62,1.87,4.62,5.1-2.2,5.09-4.62,5.09-4.62-1.87-4.62-5.09Zm6.9,0c0-1.95-.85-3.24-2.28-3.24s-2.28,1.3-2.28,3.24,.85,3.23,2.28,3.23,2.28-1.28,2.28-3.23Z"/><path class="cls-1" d="M216.22,24.16h1.87l.17,1.73h.06c.69-1.27,1.72-1.97,2.76-1.97,.49,0,.81,.06,1.1,.2l-.4,1.98c-.34-.09-.59-.16-1-.16-.78,0-1.71,.53-2.29,2.01v5.92h-2.28v-9.71Z"/><path class="cls-1" d="M223.95,24.16h1.87l.17,1.33h.06c.82-.86,1.76-1.56,2.98-1.56,1.42,0,2.23,.65,2.68,1.74,.93-.99,1.89-1.74,3.12-1.74,2.05,0,3,1.41,3,3.86v6.09h-2.28v-5.8c0-1.6-.47-2.2-1.5-2.2-.62,0-1.28,.4-2.03,1.21v6.79h-2.28v-5.8c0-1.6-.47-2.2-1.5-2.2-.6,0-1.28,.4-2.03,1.21v6.79h-2.28v-9.71Z"/><path class="cls-1" d="M240.46,31.26c0-2.08,1.72-3.16,5.71-3.59-.03-1.04-.45-1.91-1.76-1.91-.97,0-1.88,.44-2.73,.96l-.84-1.52c1.07-.67,2.44-1.27,3.99-1.27,2.43,0,3.62,1.5,3.62,4.2v5.75h-1.87l-.17-1.08h-.06c-.87,.74-1.87,1.31-3.01,1.31-1.7,0-2.87-1.15-2.87-2.85Zm5.71,0v-2.18c-2.63,.33-3.51,1.02-3.51,2,0,.86,.58,1.23,1.4,1.23s1.39-.39,2.11-1.05Z"/><path class="cls-1" d="M251.57,30.6v-4.63h-1.38v-1.71l1.5-.1,.27-2.65h1.89v2.65h2.48v1.81h-2.48v4.62c0,1.14,.44,1.7,1.38,1.7,.33,0,.73-.11,1.01-.22l.39,1.68c-.53,.17-1.21,.36-1.99,.36-2.24,0-3.07-1.42-3.07-3.51Z"/><path class="cls-1" d="M258.47,21.17c0-.77,.6-1.29,1.41-1.29s1.41,.52,1.41,1.29-.6,1.29-1.41,1.29-1.41-.54-1.41-1.29Zm.26,2.99h2.28v9.71h-2.28v-9.71Z"/><path class="cls-1" d="M263.62,29.02c0-3.23,2.2-5.1,4.62-5.1s4.62,1.87,4.62,5.1-2.2,5.09-4.62,5.09-4.62-1.87-4.62-5.09Zm6.9,0c0-1.95-.85-3.24-2.28-3.24s-2.28,1.3-2.28,3.24,.85,3.23,2.28,3.23,2.28-1.28,2.28-3.23Z"/><path class="cls-1" d="M275.48,24.16h1.87l.17,1.31h.06c.87-.85,1.86-1.55,3.19-1.55,2.08,0,2.99,1.41,2.99,3.86v6.09h-2.28v-5.8c0-1.6-.46-2.2-1.51-2.2-.85,0-1.42,.42-2.21,1.21v6.79h-2.28v-9.71Z"/><path class="cls-1" d="M290.54,32.21l1.34-1.57c.93,.88,2.17,1.48,3.37,1.48,1.46,0,2.25-.66,2.25-1.67,0-1.06-.83-1.4-2.01-1.9l-1.77-.77c-1.27-.53-2.61-1.54-2.61-3.43,0-2.06,1.82-3.65,4.34-3.65,1.51,0,2.97,.62,3.99,1.65l-1.18,1.46c-.82-.7-1.7-1.11-2.81-1.11-1.23,0-2.03,.57-2.03,1.52,0,1.02,.99,1.39,2.06,1.83l1.74,.73c1.54,.64,2.61,1.61,2.61,3.49,0,2.1-1.74,3.84-4.64,3.84-1.75,0-3.43-.69-4.66-1.89Z"/><path class="cls-1" d="M302.19,30.6v-4.63h-1.38v-1.71l1.5-.1,.27-2.65h1.89v2.65h2.48v1.81h-2.48v4.62c0,1.14,.44,1.7,1.38,1.7,.33,0,.73-.11,1.01-.22l.39,1.68c-.53,.17-1.21,.36-1.99,.36-2.24,0-3.07-1.42-3.07-3.51Z"/><path class="cls-1" d="M308.41,31.26c0-2.08,1.72-3.16,5.71-3.59-.03-1.04-.45-1.91-1.76-1.91-.97,0-1.88,.44-2.73,.96l-.84-1.52c1.07-.67,2.44-1.27,3.99-1.27,2.43,0,3.62,1.5,3.62,4.2v5.75h-1.87l-.17-1.08h-.06c-.87,.74-1.87,1.31-3.01,1.31-1.7,0-2.87-1.15-2.87-2.85Zm5.71,0v-2.18c-2.63,.33-3.51,1.02-3.51,2,0,.86,.58,1.23,1.4,1.23s1.39-.39,2.11-1.05Z"/><path class="cls-1" d="M319.49,24.16h1.87l.17,1.31h.06c.87-.85,1.86-1.55,3.19-1.55,2.08,0,2.99,1.41,2.99,3.86v6.09h-2.28v-5.8c0-1.6-.46-2.2-1.51-2.2-.85,0-1.42,.42-2.21,1.21v6.79h-2.28v-9.71Z"/><path class="cls-1" d="M330.33,29.02c0-3.16,1.99-5.1,4.11-5.1,1.1,0,1.79,.41,2.55,1.07l-.09-1.57v-3.52h2.28v13.97h-1.87l-.17-1.05h-.06c-.72,.72-1.72,1.29-2.76,1.29-2.42,0-3.99-1.88-3.99-5.09Zm6.57,2.11v-4.52c-.67-.59-1.32-.81-1.98-.81-1.23,0-2.25,1.17-2.25,3.2s.81,3.23,2.21,3.23c.75,0,1.38-.33,2.03-1.09Z"/><path class="cls-1" d="M341.92,31.26c0-2.08,1.72-3.16,5.71-3.59-.03-1.04-.45-1.91-1.76-1.91-.97,0-1.88,.44-2.73,.96l-.84-1.52c1.07-.67,2.44-1.27,3.99-1.27,2.43,0,3.62,1.5,3.62,4.2v5.75h-1.87l-.17-1.08h-.06c-.87,.74-1.87,1.31-3.01,1.31-1.7,0-2.87-1.15-2.87-2.85Zm5.71,0v-2.18c-2.63,.33-3.51,1.02-3.51,2,0,.86,.58,1.23,1.4,1.23s1.39-.39,2.11-1.05Z"/><path class="cls-1" d="M353,24.16h1.87l.17,1.73h.06c.69-1.27,1.72-1.97,2.76-1.97,.49,0,.81,.06,1.1,.2l-.4,1.98c-.34-.09-.59-.16-1-.16-.78,0-1.71,.53-2.29,2.01v5.92h-2.28v-9.71Z"/><path class="cls-1" d="M359.94,29.02c0-3.16,1.99-5.1,4.11-5.1,1.1,0,1.79,.41,2.55,1.07l-.09-1.57v-3.52h2.28v13.97h-1.87l-.17-1.05h-.06c-.72,.72-1.72,1.29-2.76,1.29-2.42,0-3.99-1.88-3.99-5.09Zm6.57,2.11v-4.52c-.67-.59-1.32-.81-1.98-.81-1.23,0-2.25,1.17-2.25,3.2s.81,3.23,2.21,3.23c.75,0,1.38-.33,2.03-1.09Z"/><path class="cls-1" d="M371.08,32.76l1.06-1.45c.86,.67,1.7,1.08,2.68,1.08,1.06,0,1.56-.5,1.56-1.16,0-.81-1.05-1.18-2.09-1.57-1.27-.48-2.73-1.21-2.73-2.83s1.36-2.9,3.54-2.9c1.35,0,2.44,.55,3.23,1.16l-1.04,1.4c-.68-.5-1.37-.85-2.13-.85-.98,0-1.44,.47-1.44,1.08,0,.77,.98,1.06,2.03,1.45,1.31,.49,2.78,1.12,2.78,2.93,0,1.67-1.32,3.01-3.77,3.01-1.33,0-2.73-.57-3.68-1.35Z"/></g><g><g><ellipse class="cls-1" cx="17.85" cy="28.15" rx="2.06" ry="2.05"/><ellipse class="cls-1" cx="24.89" cy="2.3" rx="2.06" ry="2.05"/><ellipse class="cls-1" cx="15.72" cy="8.46" rx="1.69" ry="1.68"/><ellipse class="cls-1" cx="15.5" cy="14.28" rx="2.9" ry="2.88"/><ellipse class="cls-1" cx="9.82" cy="19.42" rx="1.89" ry="1.88"/><ellipse class="cls-1" cx="7.04" cy="24.64" rx="3.16" ry="3.14"/><ellipse class="cls-1" cx="8.61" cy="32.71" rx="1.94" ry="1.93"/><ellipse class="cls-1" cx="9.24" cy="38.38" rx="2.92" ry="2.9"/><ellipse class="cls-1" cx="14.06" cy="42.27" rx="1.44" ry="1.43"/><ellipse class="cls-1" cx="19.45" cy="23.48" rx="1.44" ry="1.43"/><ellipse class="cls-1" cx="16.93" cy="34.03" rx="1.66" ry="1.65"/><ellipse class="cls-1" cx="1.01" cy="27.98" rx="1.01" ry="1"/><ellipse class="cls-1" cx="2.87" cy="36.75" rx="1.44" ry="1.43"/><ellipse class="cls-1" cx="12.99" cy="27.67" rx="1.35" ry="1.35"/><ellipse class="cls-1" cx="13.56" cy="18.88" rx="1.18" ry="1.17"/><ellipse class="cls-1" cx="17.63" cy="42.89" rx="1.41" ry="1.4"/><ellipse class="cls-1" cx="24.26" cy="46.7" rx="2.61" ry="2.6"/><ellipse class="cls-1" cx="21.13" cy="36.31" rx="1.5" ry="1.49"/><ellipse class="cls-1" cx="25.29" cy="34.57" rx="1.5" ry="1.49"/><ellipse class="cls-1" cx="25.2" cy="7.34" rx="1.82" ry="1.81"/><ellipse class="cls-1" cx="21.49" cy="13.11" rx="2.37" ry="2.36"/><ellipse class="cls-1" cx="20.38" cy="7.63" rx="2.35" ry="2.34"/><ellipse class="cls-1" cx="10.56" cy="9.94" rx="2.82" ry="2.8"/><ellipse class="cls-1" cx="10.62" cy="15.88" rx="1.33" ry="1.33"/><ellipse class="cls-1" cx="3.46" cy="19.95" rx="1.92" ry="1.91"/><ellipse class="cls-1" cx="1.76" cy="24.61" rx="1.65" ry="1.64"/><ellipse class="cls-1" cx="3.31" cy="31.65" rx="2.74" ry="2.73"/><ellipse class="cls-1" cx="4.45" cy="40.83" rx="1.57" ry="1.56"/><ellipse class="cls-1" cx="8.56" cy="46.04" rx="1.81" ry="1.8"/><ellipse class="cls-1" cx="15.08" cy="47.65" rx="3.13" ry="3.12"/><ellipse class="cls-1" cx="17.96" cy="53.07" rx="2.03" ry="2.02"/><ellipse class="cls-1" cx="23.86" cy="53.33" rx="3.05" ry="3.04"/><ellipse class="cls-1" cx="6.28" cy="14.02" rx="1.9" ry="1.89"/><ellipse class="cls-1" cx="25.42" cy="18.01" rx="1.82" ry="1.8"/><ellipse class="cls-1" cx="12.69" cy="23.06" rx="2.12" ry="2.11"/><ellipse class="cls-1" cx="23.05" cy="21.29" rx="1.7" ry="1.69"/><ellipse class="cls-1" cx="21.16" cy="17.54" rx="1.27" ry="1.27"/><ellipse class="cls-1" cx="22.76" cy="28.56" rx="1.21" ry="1.2"/><ellipse class="cls-1" cx="26.34" cy="22.8" rx=".94" ry=".93"/><ellipse class="cls-1" cx="26.24" cy="29.07" rx=".94" ry=".93"/><ellipse class="cls-1" cx="25.77" cy="14.64" rx=".94" ry=".93"/><ellipse class="cls-1" cx="25.85" cy="11.38" rx="1.17" ry="1.16"/><ellipse class="cls-1" cx="25.82" cy="41.78" rx=".94" ry=".93"/><ellipse class="cls-1" cx="12.4" cy="35.36" rx=".94" ry=".93"/><ellipse class="cls-1" cx="7" cy="29.36" rx=".94" ry=".93"/><ellipse class="cls-1" cx="10.45" cy="49.21" rx="1.2" ry="1.2"/><ellipse class="cls-1" cx="6.74" cy="43.5" rx=".94" ry=".93"/><ellipse class="cls-1" cx="20.21" cy="49.3" rx="1.29" ry="1.28"/><ellipse class="cls-1" cx="16.48" cy="3.87" rx="1.27" ry="1.27"/><ellipse class="cls-1" cx="17.24" cy="19.49" rx="1.71" ry="1.7"/><ellipse class="cls-1" cx="16.43" cy="24.32" rx=".98" ry=".98"/><ellipse class="cls-1" cx="13.65" cy="5.27" rx=".98" ry=".98"/><ellipse class="cls-1" cx="6.59" cy="17.56" rx="1.16" ry="1.16"/><ellipse class="cls-1" cx="9.92" cy="28.62" rx=".98" ry=".98"/><ellipse class="cls-1" cx="13.27" cy="31.68" rx="1.92" ry="1.9"/><ellipse class="cls-1" cx="20.75" cy="31.94" rx="1.82" ry="1.81"/><ellipse class="cls-1" cx="15.07" cy="38.24" rx="2.11" ry="2.09"/><ellipse class="cls-1" cx="18.85" cy="39.2" rx=".95" ry=".94"/><ellipse class="cls-1" cx="19.59" cy="45.73" rx=".95" ry=".94"/><ellipse class="cls-1" cx="10.69" cy="43.47" rx=".95" ry=".94"/><ellipse class="cls-1" cx="5.84" cy="35.42" rx=".95" ry=".94"/><ellipse class="cls-1" cx="21.96" cy="41.64" rx="2.13" ry="2.12"/><ellipse class="cls-1" cx="25.3" cy="38.29" rx="1.66" ry="1.65"/><ellipse class="cls-1" cx="26.05" cy="25.94" rx=".98" ry=".98"/><ellipse class="cls-1" cx="24.76" cy="31.47" rx=".98" ry=".98"/><ellipse class="cls-1" cx="22.78" cy="25.31" rx="1.4" ry="1.4"/><ellipse class="cls-1" cx="19.93" cy="2.62" rx="1.4" ry="1.4"/></g><rect class="cls-1" x="28.54" y="0" width="1.62" height="56.94" rx=".81" ry=".81"/><g><g><path class="cls-1" d="M31.41,53.13c-.13-1.79,1.15-3.35,2.88-3.5h0c1.73-.14,3.25,1.19,3.38,2.97h0c.14,1.79-1.15,3.35-2.88,3.5h0c-.09,0-.17,0-.26,0h0c-1.62,0-3-1.28-3.13-2.98Z"/><path class="cls-1" d="M39.16,51.99c-.7-1.64,.03-3.55,1.62-4.27h0c1.59-.72,3.44,.03,4.14,1.67h0c.7,1.64-.03,3.55-1.62,4.27h0c-.41,.19-.84,.27-1.26,.27h0c-1.21,0-2.37-.73-2.88-1.94Z"/><path class="cls-1" d="M45.83,48.39c-1.17-1.33-1.08-3.37,.2-4.59h0c1.28-1.21,3.27-1.12,4.44,.2h0c1.17,1.32,1.08,3.37-.2,4.59h0c-.6,.57-1.36,.85-2.12,.85h0c-.85,0-1.7-.36-2.32-1.05Z"/><path class="cls-1" d="M51.11,43c-1.53-.85-2.09-2.82-1.26-4.4h0c.83-1.57,2.74-2.15,4.27-1.3h0c1.52,.86,2.08,2.83,1.26,4.4h0c-.58,1.08-1.65,1.7-2.77,1.7h0c-.51,0-1.02-.13-1.5-.4Z"/><path class="cls-1" d="M54.51,35.73c-1.71-.3-2.86-1.96-2.58-3.72h0s0-.06,.01-.09h0c.28-1.77,1.9-2.97,3.61-2.67h0c1.71,.29,2.87,1.95,2.59,3.72h0s-.01,.06-.02,.1h0c-.26,1.59-1.59,2.72-3.09,2.72h0c-.18,0-.35-.01-.53-.05Z"/><path class="cls-1" d="M51.94,24.92h0c-.28-1.77,.87-3.44,2.58-3.73h0c1.71-.3,3.34,.89,3.63,2.66h0c.28,1.77-.87,3.43-2.58,3.73h0c-.18,.03-.35,.04-.53,.04h0c-1.51,0-2.84-1.12-3.1-2.7Z"/><path class="cls-1" d="M49.5,18.88h0c-.83-1.58-.26-3.55,1.26-4.4h0c1.53-.86,3.44-.27,4.26,1.3h0c.83,1.57,.26,3.55-1.27,4.4h0c-.47,.27-.99,.4-1.5,.4h0c-1.12,0-2.2-.61-2.77-1.7Z"/><path class="cls-1" d="M45.99,13.4c-1.28-1.21-1.36-3.27-.18-4.59h0c1.18-1.32,3.17-1.4,4.44-.19h0c1.28,1.21,1.36,3.27,.19,4.58h0c-.62,.7-1.47,1.05-2.31,1.05h0c-.76,0-1.52-.28-2.13-.85Z"/><path class="cls-1" d="M40.63,9.14c-1.59-.71-2.32-2.62-1.62-4.26h0c.69-1.64,2.54-2.39,4.13-1.68h0c1.59,.72,2.32,2.62,1.62,4.26h0c-.51,1.22-1.67,1.95-2.88,1.95h0c-.42,0-.85-.08-1.25-.27Z"/><path class="cls-1" d="M34.49,7.05c-1.73-.12-3.04-1.66-2.94-3.45h0c.11-1.79,1.61-3.14,3.34-3.03h0c1.73,.12,3.04,1.66,2.94,3.45h0c-.11,1.72-1.5,3.04-3.13,3.04h0c-.07,0-.14,0-.21,0Z"/><path class="cls-1" d="M31.74,40.26c-.1-.96,.57-1.82,1.5-1.93h0c.93-.1,1.77,.59,1.87,1.54h0c.11,.96-.56,1.82-1.49,1.93h0c-.07,0-.13,.01-.19,.01h0c-.85,0-1.58-.66-1.69-1.55Z"/><path class="cls-1" d="M36.4,39.43c-.47-.83-.2-1.91,.61-2.39h0c.81-.49,1.84-.21,2.31,.62h0c.47,.83,.2,1.91-.61,2.39h0c-.27,.17-.56,.24-.85,.24h0c-.58,0-1.15-.31-1.46-.87Z"/><path class="cls-1" d="M40.23,36.72c-.76-.56-.93-1.65-.39-2.44h0c.55-.78,1.6-.96,2.36-.4h0c.76,.57,.93,1.65,.39,2.44h0c-.33,.47-.85,.73-1.37,.73h0c-.34,0-.69-.1-.99-.33Z"/><path class="cls-1" d="M42.75,32.6c-.91-.2-1.5-1.12-1.31-2.06h0v-.03h0c.18-.94,1.08-1.56,2-1.37h0c.91,.19,1.51,1.11,1.32,2.06h0s0,.03,0,.05h0c-.16,.82-.87,1.4-1.66,1.4h0c-.11,0-.23-.01-.34-.04Z"/><path class="cls-1" d="M41.42,26.42c-.2-.94,.37-1.88,1.28-2.09h0c.91-.21,1.82,.38,2.02,1.33h0c.2,.94-.37,1.87-1.29,2.08h0c-.12,.03-.25,.04-.37,.04h0c-.78,0-1.48-.55-1.65-1.36Z"/><path class="cls-1" d="M39.76,22.69c-.55-.77-.39-1.86,.36-2.44h0c.75-.57,1.81-.41,2.36,.36h0c.55,.78,.4,1.87-.35,2.44h0c-.3,.23-.66,.34-1.01,.34h0c-.51,0-1.03-.25-1.36-.71Z"/><path class="cls-1" d="M36.89,19.98c-.81-.48-1.1-1.54-.64-2.38h0c.46-.84,1.5-1.14,2.31-.66h0c.81,.47,1.1,1.54,.64,2.38h0c-.31,.57-.88,.89-1.47,.89h0c-.28,0-.57-.08-.83-.22Z"/><path class="cls-1" d="M33.12,18.78c-.93-.08-1.62-.92-1.54-1.88h0c.07-.96,.89-1.68,1.83-1.59h0c.93,.08,1.62,.92,1.54,1.88h0c-.07,.91-.81,1.6-1.69,1.6h0s-.09,0-.14,0Z"/></g><g><path class="cls-1" d="M31.46,46.13c-.14-1.44,.87-2.72,2.27-2.87h0c1.39-.15,2.64,.9,2.78,2.34h0c.14,1.44-.87,2.72-2.27,2.87h0c-.09,0-.18,.01-.26,.01h0c-1.29,0-2.39-1.01-2.52-2.35Z"/><path class="cls-1" d="M38.46,44.95c-.7-1.26-.27-2.85,.95-3.57h0c1.21-.72,2.76-.29,3.46,.97h0c.7,1.26,.28,2.85-.94,3.57h0c-.4,.24-.83,.35-1.26,.35h0c-.88,0-1.73-.47-2.21-1.32Z"/><path class="cls-1" d="M44.05,40.95c-1.13-.86-1.37-2.5-.55-3.66h0c.83-1.17,2.42-1.42,3.55-.56h0c1.13,.85,1.37,2.49,.55,3.66h0c-.5,.7-1.27,1.07-2.05,1.07h0c-.52,0-1.05-.16-1.5-.5Z"/><path class="cls-1" d="M47.66,34.79c-1.37-.31-2.24-1.7-1.94-3.11h0s0-.02,0-.03h0s0-.01,0-.02h0c.28-1.42,1.64-2.32,3-2.02h0c1.37,.3,2.25,1.69,1.96,3.1h0s0,.02,0,.03h0s0,.04,0,.05h0c-.26,1.23-1.31,2.07-2.48,2.07h0c-.18,0-.36-.02-.54-.06Z"/><path class="cls-1" d="M45.74,25.48c-.29-1.42,.58-2.81,1.96-3.11h0c1.37-.3,2.71,.6,3,2.02h0c.29,1.41-.58,2.81-1.96,3.11h0c-.18,.03-.35,.06-.53,.06h0c-1.17,0-2.23-.84-2.48-2.07Z"/><path class="cls-1" d="M43.54,19.85h0c-.82-1.17-.57-2.81,.57-3.65h0c1.14-.85,2.72-.59,3.55,.58h0c.82,1.17,.57,2.81-.57,3.66h0c-.45,.34-.97,.5-1.48,.5h0c-.79,0-1.56-.37-2.06-1.08Z"/><path class="cls-1" d="M39.47,15.74c-1.21-.73-1.63-2.32-.93-3.57h0c.7-1.26,2.25-1.68,3.47-.96h0c1.21,.73,1.62,2.32,.92,3.57h0c-.47,.84-1.32,1.31-2.2,1.31h0c-.43,0-.87-.12-1.26-.36Z"/><path class="cls-1" d="M33.82,13.88h0c-1.39-.13-2.42-1.41-2.29-2.85h0c.14-1.44,1.37-2.5,2.77-2.36h0c1.39,.13,2.42,1.41,2.29,2.85h0c-.12,1.35-1.23,2.37-2.52,2.37h0c-.07,0-.16,0-.24-.01Z"/><path class="cls-1" d="M31.84,36.08c-.07-.67,.4-1.27,1.05-1.35h0c.65-.07,1.24,.41,1.31,1.08h0c.07,.67-.4,1.28-1.05,1.35h0s-.09,0-.14,0h0c-.6,0-1.11-.46-1.18-1.09Z"/><path class="cls-1" d="M34.85,35.59c-.33-.58-.14-1.33,.43-1.67h0c.57-.34,1.29-.15,1.62,.44h0c.33,.58,.14,1.33-.43,1.67h0c-.19,.11-.39,.17-.6,.17h0c-.41,0-.8-.22-1.03-.61Z"/><path class="cls-1" d="M37.4,33.89c-.53-.4-.65-1.16-.27-1.71h0c.39-.54,1.12-.67,1.66-.27h0c.53,.39,.65,1.16,.26,1.7h0c-.23,.34-.6,.51-.96,.51h0c-.24,0-.48-.08-.69-.23Z"/><path class="cls-1" d="M39.06,31.26c-.64-.14-1.05-.78-.91-1.44h0v-.02h0c.13-.66,.76-1.09,1.39-.96h0c.64,.13,1.06,.77,.93,1.44h0s0,.02,0,.03h0c-.11,.58-.61,.98-1.16,.98h0c-.08,0-.16-.01-.24-.03Z"/><path class="cls-1" d="M38.13,27.2c-.14-.66,.26-1.31,.9-1.45h0c.64-.15,1.27,.27,1.41,.93h0c.14,.66-.26,1.31-.9,1.46h0c-.08,.01-.17,.03-.26,.03h0c-.54,0-1.04-.39-1.15-.96Z"/><path class="cls-1" d="M37.09,24.85c-.39-.54-.28-1.31,.25-1.71h0c.52-.4,1.27-.29,1.65,.26h0c.39,.54,.28,1.31-.24,1.71h0c-.22,.16-.46,.24-.7,.24h0c-.37,0-.72-.17-.95-.5Z"/><path class="cls-1" d="M35.22,23.12c-.58-.33-.77-1.07-.45-1.66h0c.32-.59,1.04-.8,1.61-.46h0c.57,.34,.77,1.07,.45,1.67h0c-.22,.39-.62,.61-1.03,.61h0c-.2,0-.4-.05-.58-.16Z"/><path class="cls-1" d="M32.83,22.36c-.65-.06-1.13-.65-1.08-1.32h0c.05-.67,.63-1.17,1.28-1.11h0c.65,.06,1.14,.65,1.08,1.32h0c-.05,.64-.58,1.12-1.18,1.12h0s-.07,0-.1,0Z"/></g></g></g><g><path class="cls-1" d="M415.33,25.19c-.29-.1-.53-.14-1.13-.14h-2.24v5h2.15c.11,0,.72,.02,1.19-.15,.68-.24,1.26-.91,1.26-2.43,0-.19,.01-1.36-.71-1.97-.08-.07-.26-.2-.53-.3Z"/><path class="cls-1" d="M450.38,20.53h-54.46c-3.82,0-6.92,3.1-6.92,6.92s3.1,6.92,6.92,6.92h54.46c3.82,0,6.92-3.1,6.92-6.92s-3.1-6.92-6.92-6.92Zm-44.65,4.56h-2.86v6.32h-1.95v-6.32h-2.87v-1.41h7.68v1.41Zm11.63,5.32c-.22,.21-.68,.6-1.45,.82-.48,.14-.89,.19-1.89,.19h-3.99v-7.74h4.24c.96,0,1.77,.09,2.62,.61,.12,.08,.37,.23,.63,.49,.69,.71,.98,1.75,.98,2.73,0,1.59-.67,2.46-1.14,2.89Zm14.51,1.01h-1.9l-1.88-5.63-1.84,5.63h-1.93l-2.04-7.74h1.89l1.16,5.28,1.78-5.28h2.02l1.74,5.28,1.17-5.28h1.85l-2.03,7.74Zm8.03-2.81c.6,1.55,2.29,1.62,2.74,1.62,.84,0,1.85-.28,2.43-.94,.24-.27,.31-.49,.36-.63h-2.53v-1.39h4.15v4.14h-1.48v-.89c-.09,.09-.18,.16-.27,.24-.33,.26-1.02,.68-2.07,.82-.29,.04-.58,.06-.85,.06-1.64,0-2.55-.44-3.13-.87-.45-.33-1.15-.93-1.43-2.26-.03-.16-.11-.56-.11-1.01,0-1.4,.7-2.36,1.04-2.72,.21-.22,.48-.44,.73-.6,.98-.61,2.04-.78,3.17-.78,.53,0,2.58,.01,3.89,1.46,.22,.25,.35,.46,.52,.75l-2.14,.3c-.04-.05-.23-.28-.43-.46-.51-.44-1.23-.6-1.92-.6-.94,0-1.94,.34-2.47,1.17-.15,.24-.41,.78-.41,1.51,0,.18,.01,.6,.2,1.07Z"/></g></g></g></svg>